<svg width="24" height="22" viewBox="0 0 24 22" fill="none" xmlns="http://www.w3.org/2000/svg">
<path d="M18.4615 2.69207L18.4615 19.3075C18.461 19.7969 18.2664 20.2662 17.9203 20.6124C17.5742 20.9585 17.1049 21.1531 16.6154 21.1536L12.9231 21.1536C12.4336 21.1531 11.9643 20.9585 11.6182 20.6124C11.2721 20.2662 11.0774 19.7969 11.0769 19.3075L11.0769 2.69207C11.0774 2.20259 11.2721 1.7333 11.6182 1.38719C11.9643 1.04107 12.4336 0.846408 12.9231 0.845918L16.6154 0.845918C17.1049 0.846408 17.5742 1.04107 17.9203 1.38719C18.2664 1.7333 18.461 2.20259 18.4615 2.69207ZM12.9231 19.3075L16.6154 19.3075L16.6154 2.69207L12.9231 2.69207L12.9231 19.3075ZM12.9231 2.69207L12.9231 19.3075C12.9226 19.7969 12.7279 20.2662 12.3818 20.6123C12.0357 20.9584 11.5664 21.1531 11.0769 21.1536L7.38462 21.1536C6.89513 21.1531 6.42584 20.9584 6.07973 20.6123C5.73361 20.2662 5.53895 19.7969 5.53846 19.3074L5.53846 2.69206C5.53895 2.20258 5.73361 1.73328 6.07973 1.38717C6.42584 1.04105 6.89513 0.846389 7.38461 0.845901L11.0769 0.845901C11.5664 0.846389 12.0357 1.04105 12.3818 1.38717C12.7279 1.73328 12.9226 2.20259 12.9231 2.69207ZM7.38462 19.3074L11.0769 19.3075L11.0769 2.69207L7.38461 2.69206L7.38462 19.3074ZM7.38461 2.69206L7.38462 19.3074C7.38413 19.7969 7.18946 20.2662 6.84335 20.6123C6.49723 20.9584 6.02794 21.1531 5.53846 21.1536L1.84615 21.1536C1.35667 21.1531 0.887381 20.9584 0.541266 20.6123C0.195151 20.2662 0.000488688 19.7969 -8.07075e-08 19.3074L-8.06989e-07 2.69206C0.000487919 2.20258 0.19515 1.73328 0.541265 1.38717C0.88738 1.04105 1.35667 0.84639 1.84615 0.845901L5.53846 0.845901C6.02794 0.84639 6.49723 1.04105 6.84335 1.38717C7.18946 1.73328 7.38413 2.20258 7.38461 2.69206ZM1.84615 19.3074L5.53846 19.3074L5.53846 2.69206L1.84615 2.69206L1.84615 19.3074Z" fill="#42526E"/>
<path d="M24 2.69228L24 19.3077C23.9995 19.7971 23.8048 20.2664 23.4587 20.6125C23.1126 20.9587 22.6433 21.1533 22.1538 21.1538L18.4615 21.1538C17.9721 21.1533 17.5028 20.9587 17.1567 20.6125C16.8105 20.2664 16.6159 19.7969 16.6154 19.3075L16.6154 2.69207C16.6159 2.20259 16.8105 1.7335 17.1567 1.38739C17.5028 1.04127 17.9721 0.846614 18.4615 0.846124L22.1538 0.846124C22.6433 0.846614 23.1126 1.04127 23.4587 1.38739C23.8048 1.7335 23.9995 2.2028 24 2.69228ZM18.4615 19.3075L22.1538 19.3077L22.1538 2.69228L18.4615 2.69207L18.4615 19.3075Z" fill="#42526E"/>
</svg>
