<svg width="18" height="19" viewBox="0 0 18 19" fill="none" xmlns="http://www.w3.org/2000/svg">
<path d="M16.95 18.9829C14.8667 18.9829 12.8083 18.5287 10.775 17.6204C8.74167 16.7121 6.89167 15.4246 5.225 13.7579C3.55833 12.0912 2.27083 10.2412 1.3625 8.20791C0.454167 6.17458 0 4.11624 0 2.03291C0 1.73291 0.1 1.48291 0.3 1.28291C0.5 1.08291 0.75 0.98291 1.05 0.98291H5.1C5.33333 0.98291 5.54167 1.06208 5.725 1.22041C5.90833 1.37874 6.01667 1.56624 6.05 1.78291L6.7 5.28291C6.73333 5.54958 6.725 5.77458 6.675 5.95791C6.625 6.14124 6.53333 6.29958 6.4 6.43291L3.975 8.88291C4.30833 9.49958 4.70417 10.0954 5.1625 10.6704C5.62083 11.2454 6.125 11.7996 6.675 12.3329C7.19167 12.8496 7.73333 13.3287 8.3 13.7704C8.86667 14.2121 9.46667 14.6162 10.1 14.9829L12.45 12.6329C12.6 12.4829 12.7958 12.3704 13.0375 12.2954C13.2792 12.2204 13.5167 12.1996 13.75 12.2329L17.2 12.9329C17.4333 12.9996 17.625 13.1204 17.775 13.2954C17.925 13.4704 18 13.6662 18 13.8829V17.9329C18 18.2329 17.9 18.4829 17.7 18.6829C17.5 18.8829 17.25 18.9829 16.95 18.9829ZM3.025 6.98291L4.675 5.33291L4.25 2.98291H2.025C2.10833 3.66624 2.225 4.34124 2.375 5.00791C2.525 5.67458 2.74167 6.33291 3.025 6.98291ZM11.975 15.9329C12.625 16.2162 13.2875 16.4412 13.9625 16.6079C14.6375 16.7746 15.3167 16.8829 16 16.9329V14.7329L13.65 14.2579L11.975 15.9329Z" fill="#A8A8A8"/>
</svg>
