<svg width="33" height="32" viewBox="0 0 33 32" fill="none" xmlns="http://www.w3.org/2000/svg">
<mask id="mask0_68_107" style="mask-type:alpha" maskUnits="userSpaceOnUse" x="0" y="0" width="33" height="32">
<rect x="0.654297" width="32" height="32" fill="#D9D9D9"/>
</mask>
<g mask="url(#mask0_68_107)">
<path d="M16.6545 26.6666C15.9211 26.6666 15.2933 26.4055 14.7711 25.8833C14.2489 25.3611 13.9878 24.7333 13.9878 24C13.9878 23.2666 14.2489 22.6389 14.7711 22.1166C15.2933 21.5944 15.9211 21.3333 16.6545 21.3333C17.3878 21.3333 18.0156 21.5944 18.5378 22.1166C19.06 22.6389 19.3211 23.2666 19.3211 24C19.3211 24.7333 19.06 25.3611 18.5378 25.8833C18.0156 26.4055 17.3878 26.6666 16.6545 26.6666ZM16.6545 18.6666C15.9211 18.6666 15.2933 18.4055 14.7711 17.8833C14.2489 17.3611 13.9878 16.7333 13.9878 16C13.9878 15.2666 14.2489 14.6389 14.7711 14.1166C15.2933 13.5944 15.9211 13.3333 16.6545 13.3333C17.3878 13.3333 18.0156 13.5944 18.5378 14.1166C19.06 14.6389 19.3211 15.2666 19.3211 16C19.3211 16.7333 19.06 17.3611 18.5378 17.8833C18.0156 18.4055 17.3878 18.6666 16.6545 18.6666ZM16.6545 10.6666C15.9211 10.6666 15.2933 10.4055 14.7711 9.88331C14.2489 9.36109 13.9878 8.73331 13.9878 7.99998C13.9878 7.26665 14.2489 6.63887 14.7711 6.11665C15.2933 5.59442 15.9211 5.33331 16.6545 5.33331C17.3878 5.33331 18.0156 5.59442 18.5378 6.11665C19.06 6.63887 19.3211 7.26665 19.3211 7.99998C19.3211 8.73331 19.06 9.36109 18.5378 9.88331C18.0156 10.4055 17.3878 10.6666 16.6545 10.6666Z" fill="white"/>
</g>
</svg>
