<svg width="20" height="17" viewBox="0 0 20 17" fill="none" xmlns="http://www.w3.org/2000/svg">
<path d="M2 16.4829C1.45 16.4829 0.979167 16.2871 0.5875 15.8954C0.195833 15.5037 0 15.0329 0 14.4829V2.48291C0 1.93291 0.195833 1.46208 0.5875 1.07041C0.979167 0.678744 1.45 0.48291 2 0.48291H18C18.55 0.48291 19.0208 0.678744 19.4125 1.07041C19.8042 1.46208 20 1.93291 20 2.48291V14.4829C20 15.0329 19.8042 15.5037 19.4125 15.8954C19.0208 16.2871 18.55 16.4829 18 16.4829H2ZM18 4.48291L10.525 9.15791C10.4417 9.20791 10.3542 9.24541 10.2625 9.27041C10.1708 9.29541 10.0833 9.30791 10 9.30791C9.91667 9.30791 9.82917 9.29541 9.7375 9.27041C9.64583 9.24541 9.55833 9.20791 9.475 9.15791L2 4.48291V14.4829H18V4.48291ZM10 7.48291L18 2.48291H2L10 7.48291ZM2 4.73291V3.25791V3.28291V3.27041V4.73291Z" fill="#A8A8A8"/>
</svg>
