<svg width="16" height="17" viewBox="0 0 16 17" fill="none" xmlns="http://www.w3.org/2000/svg">
<path d="M8 8.48291C6.9 8.48291 5.95833 8.09124 5.175 7.30791C4.39167 6.52458 4 5.58291 4 4.48291C4 3.38291 4.39167 2.44124 5.175 1.65791C5.95833 0.874577 6.9 0.48291 8 0.48291C9.1 0.48291 10.0417 0.874577 10.825 1.65791C11.6083 2.44124 12 3.38291 12 4.48291C12 5.58291 11.6083 6.52458 10.825 7.30791C10.0417 8.09124 9.1 8.48291 8 8.48291ZM14 16.4829H2C1.45 16.4829 0.979167 16.2871 0.5875 15.8954C0.195833 15.5037 0 15.0329 0 14.4829V13.6829C0 13.1162 0.145833 12.5954 0.4375 12.1204C0.729167 11.6454 1.11667 11.2829 1.6 11.0329C2.63333 10.5162 3.68333 10.1287 4.75 9.87041C5.81667 9.61208 6.9 9.48291 8 9.48291C9.1 9.48291 10.1833 9.61208 11.25 9.87041C12.3167 10.1287 13.3667 10.5162 14.4 11.0329C14.8833 11.2829 15.2708 11.6454 15.5625 12.1204C15.8542 12.5954 16 13.1162 16 13.6829V14.4829C16 15.0329 15.8042 15.5037 15.4125 15.8954C15.0208 16.2871 14.55 16.4829 14 16.4829ZM2 14.4829H14V13.6829C14 13.4996 13.9542 13.3329 13.8625 13.1829C13.7708 13.0329 13.65 12.9162 13.5 12.8329C12.6 12.3829 11.6917 12.0454 10.775 11.8204C9.85833 11.5954 8.93333 11.4829 8 11.4829C7.06667 11.4829 6.14167 11.5954 5.225 11.8204C4.30833 12.0454 3.4 12.3829 2.5 12.8329C2.35 12.9162 2.22917 13.0329 2.1375 13.1829C2.04583 13.3329 2 13.4996 2 13.6829V14.4829ZM8 6.48291C8.55 6.48291 9.02083 6.28708 9.4125 5.89541C9.80417 5.50374 10 5.03291 10 4.48291C10 3.93291 9.80417 3.46208 9.4125 3.07041C9.02083 2.67874 8.55 2.48291 8 2.48291C7.45 2.48291 6.97917 2.67874 6.5875 3.07041C6.19583 3.46208 6 3.93291 6 4.48291C6 5.03291 6.19583 5.50374 6.5875 5.89541C6.97917 6.28708 7.45 6.48291 8 6.48291Z" fill="#A8A8A8"/>
</svg>
